<?xml version="1.0" encoding="UTF-8"?>
<!DOCTYPE svg PUBLIC "-//W3C//DTD SVG 1.1//EN" "http://www.w3.org/Graphics/SVG/1.1/DTD/svg11.dtd">
<!-- Creator: CorelDRAW 2020 (64-Bit) -->
<svg xmlns="http://www.w3.org/2000/svg" xml:space="preserve" width="210mm" height="297mm" version="1.1" style="shape-rendering:geometricPrecision; text-rendering:geometricPrecision; image-rendering:optimizeQuality; fill-rule:evenodd; clip-rule:evenodd"
viewBox="0 0 21000 29700"
 xmlns:xlink="http://www.w3.org/1999/xlink"
 xmlns:xodm="http://www.corel.com/coreldraw/odm/2003">
 <defs>
  <style type="text/css">
   <![CDATA[
    .fil0 {fill:#F88C0C;fill-rule:nonzero}
   ]]>
  </style>
 </defs>
 <g id="Слой_x0020_1">
  <metadata id="CorelCorpID_0Corel-Layer"/>
  <path class="fil0" d="M5685.28 13192.4c15.8,0 45.72,6.21 89.74,18.63 68.3,19.19 124.18,45.15 167.65,77.89 60.39,45.16 90.59,100.19 90.59,165.1 0,10.73 -0.85,22.02 -2.54,33.87 -7.9,55.88 -32.17,98.78 -72.81,128.69 -44.6,32.74 -106.97,49.11 -187.12,49.11l-333.59 0 97.37 -691.73 495.3 0 20.32 155.79 -356.45 0 -8.46 62.65zm-44.88 317.5l104.14 0c23.71,0 40.93,-1.69 51.65,-5.08 19.19,-6.21 30.2,-18.34 33.02,-36.4 0.57,-2.83 0.85,-7.06 0.85,-12.7 0,-37.82 -27.66,-67.17 -82.98,-88.06 -18.06,-6.77 -46,-13.26 -83.82,-19.47l-22.86 161.71z"/>
  <polygon id="1" class="fil0" points="6166.18,13665.69 6248.31,13512.44 6101.84,12973.96 6311.81,12973.96 6371.08,13264.37 6497.23,12973.96 6691.97,12973.96 6357.53,13665.69 "/>
  <path id="2" class="fil0" d="M6803.73 13665.69l-181.19 0 71.97 -514.78 181.19 0 -25.4 182.89c53.06,-25.4 95.39,-53.06 127,-82.98 26.53,-24.83 41.2,-47.69 44.03,-68.58 0.56,-2.26 0.84,-5.64 0.84,-10.16 0,-18.06 -9.31,-30.2 -27.94,-36.41 -11.85,-3.95 -29.91,-5.92 -54.19,-5.92l-276.01 0 64.35 -155.79 281.09 0c70.56,0 123.05,15.81 157.48,47.41 29.92,27.66 44.88,64.63 44.88,110.92 0,10.16 -0.85,20.88 -2.54,32.17 -8.47,60.96 -39.8,118.54 -93.98,172.72 -65.48,65.48 -162.28,123.9 -290.41,175.26l-21.17 153.25z"/>
  <polygon id="3" class="fil0" points="7774.86,13129.75 7581.82,13129.75 7506.47,13665.69 7325.28,13665.69 7400.63,13129.75 7207.59,13129.75 7271.94,12973.96 7754.54,12973.96 "/>
  <path id="4" class="fil0" d="M8264.24 13665.69l-181.19 0 30.48 -219.29 -198.12 0c-1.69,14.68 -2.54,29.35 -2.54,44.03 0,31.04 3.53,60.4 10.59,88.34 7.05,27.94 17.35,56.86 30.9,86.78l-160.87 97.37c-42.89,-82.41 -64.34,-171.03 -64.34,-265.86 0,-25.4 1.69,-51.36 5.08,-77.89 9.03,-63.22 27.37,-122.77 55.03,-178.51 29.92,-60.39 68.58,-111.48 115.99,-153.25 50.8,-44.59 107.53,-75.63 170.18,-93.13 49.11,-13.55 110.92,-20.32 185.43,-20.32l88.9 0 20.32 155.79 -142.24 0c-84.67,0 -150.43,19.19 -197.28,57.57 -24.27,19.76 -49.39,54.19 -75.35,103.3l180.34 0 19.47 -139.71 181.19 0 -71.97 514.78z"/>
  <path id="5" class="fil0" d="M8770.55 13665.69l-31.33 0c-102.72,0 -185.98,-35 -249.76,-104.99 -60.96,-67.17 -91.44,-151.27 -91.44,-252.3 0,-10.16 0.28,-20.75 0.84,-31.75 0.57,-11.01 1.7,-21.59 3.39,-31.75 10.72,-77.9 39.79,-140.55 87.21,-187.97 55.31,-55.31 131.23,-82.97 227.75,-82.97l141.4 0 20.32 155.79 -141.4 0c-34.43,0 -61.81,5.36 -82.13,16.08 -38.94,20.32 -62.37,58.71 -70.27,115.15 -1.69,12.98 -2.54,25.68 -2.54,38.1 0,62.66 21.45,112.89 64.35,150.71 45.15,40.07 107.81,60.11 187.96,60.11l-64.35 155.79z"/>
  <path id="6" class="fil0" d="M9648.55 13665.69l-181.19 0 97.37 -691.73 181.19 0 -97.37 691.73zm-509.7 -155.79c25.97,0 45.44,-2.26 58.42,-6.77 22.02,-7.9 34.72,-23.14 38.1,-45.72 3.96,-27.66 -10.44,-57.01 -43.18,-88.05 -22.01,-20.89 -50.8,-41.21 -86.36,-60.96l-27.94 201.5 60.96 0zm-166.79 -535.94l181.19 0 -22.02 155.79c104.99,47.41 181.19,97.36 228.61,149.86 41.76,46.28 62.65,95.95 62.65,149.01 0,9.6 -0.85,19.48 -2.54,29.64 -7.34,55.88 -29.92,102.16 -67.73,138.85 -46.85,45.72 -109.51,68.58 -187.97,68.58l-289.56 0 97.37 -691.73z"/>
 </g>
</svg>
